<?xml version="1.0" encoding="UTF-8" standalone="no"?>
<svg
   viewBox="0 0 2048 2048"
   version="1.1"
   id="svg3"
   width="2048"
   height="2048"
   xmlns="http://www.w3.org/2000/svg"
   xmlns:svg="http://www.w3.org/2000/svg">
  <defs
     id="defs3" />
  <path
     fill="#cdd0d2"
     d="m 1679.0713,399.71515 c -3.3005,-0.50747 -8.1013,-2.74036 -8.6014,-4.0598 -0.4001,-0.91346 2.0003,-6.69868 3.3005,-8.01812 0.6001,-0.60897 1.3002,-0.50747 3.5006,0.71047 1.5003,0.81196 3.1005,1.52243 3.6006,1.52243 3.0005,0 6.6011,-4.77028 5.801,-7.61214 -0.6001,-1.82691 -8.1014,-20.40056 -13.4023,-32.98596 -5.0008,-11.87493 -5.0008,-11.87493 1.5003,-11.87493 2.3004,0 4.5007,0.20299 4.9008,0.50748 0.6001,0.40598 8.6015,18.6751 12.002,27.30219 l 1.5003,3.95831 1.0001,-2.43589 c 0.5001,-1.31943 3.2006,-8.01811 5.901,-14.81828 2.7005,-6.80018 5.4009,-12.78839 6.1011,-13.39736 1.5002,-1.42093 8.9014,-1.52243 9.9016,-0.20299 0.5001,0.60897 -0.4,3.55233 -4.0007,12.4839 -6.301,15.83324 -15.4025,37.75623 -16.8028,40.4966 -3.1005,6.2927 -9.3015,9.54054 -16.2027,8.52559 z m 53.609,-15.52875 c -7.6013,-1.72542 -11.902,-7.00317 -11.902,-14.81833 0,-3.85682 1.6003,-7.61214 4.1007,-9.84503 3.7006,-3.14635 5.5009,-3.65382 15.9027,-3.95831 10.4017,-0.30449 10.4017,-0.30449 8.9014,-3.55233 -1.8003,-4.1613 -10.2017,-5.27775 -18.003,-2.43588 -2.3004,0.81196 -4.4007,1.52242 -4.6007,1.52242 -0.7002,0 -3.4006,-6.49568 -3.4006,-8.11961 0,-2.84186 10.7018,-5.78522 19.3032,-5.37924 9.3016,0.50748 15.6026,4.56728 17.803,11.57045 0.8001,2.33438 0.9002,5.68372 0.8001,18.57361 l -0.2,15.73178 h -4.8008 c -4.3007,0 -4.8008,-0.10149 -5.3009,-1.31943 l -0.5001,-1.31944 -2.7004,1.42093 c -4.8008,2.53738 -9.8017,3.14635 -15.5026,1.82691 z m 12.9022,-10.35251 c 2.9004,-1.42093 5.1008,-5.07479 4.8008,-7.81516 -0.2001,-1.62392 -0.3001,-1.62392 -4.6008,-1.82691 -9.7016,-0.40598 -13.9023,1.21794 -13.8023,5.37924 0,2.1314 1.4002,4.16134 3.4006,4.9733 2.3003,1.01495 7.6012,0.60897 10.2017,-0.71047 z m -484.3812,10.14952 c -0.9002,-0.1015 -3.0005,-1.11645 -4.7008,-2.23289 -7.7013,-4.77028 -8.8015,-17.05123 -2.0003,-22.43047 3.1005,-2.43588 6.7011,-3.24784 16.4027,-3.75532 8.6014,-0.40598 8.9015,-0.40598 8.5014,-1.72542 -0.7001,-2.43588 -2.1003,-4.1613 -4.1007,-5.07475 -3.1005,-1.31944 -10.9018,-1.11645 -14.7024,0.40598 -4.4008,1.72541 -5.0009,1.62392 -6.101,-1.11645 -1.9004,-4.77027 -1.8003,-5.48074 0.8001,-6.90167 6.101,-3.24784 17.4029,-3.95831 23.904,-1.62392 3.5006,1.31944 7.3012,4.66877 9.0015,7.91662 1.3002,2.43588 1.3002,3.24784 1.3002,19.18258 v 16.64524 l -4.3007,0.20299 c -3.5006,0.1015 -4.4007,0 -4.6008,-0.81196 -0.9001,-3.14635 -0.8001,-2.94336 -2.5004,-1.62392 -3.1005,2.53738 -10.5017,3.75532 -16.9028,2.74037 z m 13.5022,-10.14952 c 2.8005,-1.42093 4.4008,-4.05984 4.4008,-7.61217 v -2.23289 l -7.7013,0.20299 c -7.2012,0.20299 -7.8013,0.30448 -9.2016,1.72541 -1.7002,1.62393 -2.1003,5.17626 -0.8001,7.00321 2.1004,2.94336 8.4014,3.34934 13.3022,0.91345 z m 79.7134,9.84503 c -1.0002,-0.71046 -1.0002,-2.43588 -0.9001,-23.03943 l 0.2,-22.22744 4.1007,-0.20299 c 2.5004,-0.10149 4.4007,0.1015 4.9008,0.50748 0.7001,0.60897 0.8001,4.56728 0.8001,22.53192 0,11.97646 -0.2,21.92299 -0.4,22.12598 -1.3003,0.81196 -7.7013,1.01495 -8.6015,0.30448 z m 21.1035,0.30449 c -0.6001,-0.20299 -0.7001,-5.27775 -0.7001,-22.43047 0,-25.17079 -0.4,-23.44537 5.3009,-23.44537 3.2005,0 4.8008,1.01495 4.8008,3.14635 0,1.11644 0.1,1.11644 2.2004,-0.30449 3.5006,-2.33439 6.4011,-3.04485 11.7019,-2.74037 5.1009,0.30449 9.6017,2.0299 11.902,4.77027 1.5003,1.72542 1.8003,1.62393 4.7008,-0.91345 6.6011,-5.88672 19.3033,-5.27775 25.7043,1.11644 4.5008,4.56728 5.2009,7.51064 5.501,24.46033 0.1,8.01816 0,14.81833 -0.2001,15.22431 -0.5001,0.81196 -8.5014,1.21794 -9.6016,0.50748 -0.5001,-0.30449 -0.7001,-4.56728 -0.7001,-13.80338 0,-12.68689 -0.1,-13.60035 -1.3002,-16.13773 -4.0007,-8.2211 -14.8025,-7.30765 -18.1031,1.52243 -0.4,1.21794 -0.7001,6.49569 -0.8001,14.5138 -0.1,7.00321 -0.3,12.99142 -0.5001,13.4989 -0.4,0.60897 -1.8003,0.71046 -4.9008,0.60897 l -4.4007,-0.20299 -0.3001,-13.60039 c -0.3,-12.88988 -0.4,-13.80334 -1.8003,-16.6452 -1.9003,-3.95831 -4.4007,-5.37925 -9.0015,-5.07476 -2.5004,0.20299 -3.9006,0.60897 -5.5009,1.92841 -4.0007,3.14635 -4.2007,4.0598 -4.4008,19.38557 -0.1,9.94656 -0.4,13.80338 -0.9001,14.00637 -1.3002,0.40598 -7.8013,0.81196 -8.6014,0.50747 z m 94.0158,-0.81196 c -9.8016,-3.34934 -15.5026,-12.38245 -15.1025,-23.7499 0.4,-8.83008 4.7008,-15.73175 12.302,-19.48707 3.0005,-1.42093 4.1007,-1.62392 9.9017,-1.62392 6.201,0 6.8011,0.10149 10.5017,2.0299 6.8012,3.45083 10.8019,9.43905 12.0021,17.96464 1.0001,7.00316 2.2003,6.59718 -17.1029,6.80017 -12.7021,0.1015 -16.4028,0.30449 -16.4028,0.91346 0,0.40598 0.7002,1.82691 1.5003,3.04485 4.0007,6.08975 13.8023,7.00321 21.3036,1.92841 l 1.6002,-1.11645 2.7005,2.74041 c 1.5002,1.52243 2.7004,3.24785 2.7004,3.75532 0,1.42094 -3.2005,4.1613 -7.1012,5.98822 -4.5007,2.13139 -13.5022,2.53737 -18.7031,0.71046 z m 18.7031,-27.40373 c 0,-1.52243 -3.4005,-5.78522 -5.5009,-6.80017 -4.9008,-2.43589 -10.2017,-1.82692 -13.9023,1.52242 -1.8003,1.62393 -3.8007,4.66878 -3.8007,5.68373 0,0.20299 5.2009,0.30449 11.602,0.30449 9.3015,0 11.6019,-0.20299 11.6019,-0.81196 z m 31.7053,27.70821 c -6.001,-1.9284 -10.1016,-5.88672 -13.1022,-12.58543 -2.1003,-4.56729 -2.3003,-13.39736 -0.5,-18.47212 3.5006,-9.64204 12.9021,-15.83324 22.5037,-14.81829 3.5006,0.40598 8.2014,2.1314 9.9017,3.85682 0.9001,0.81196 1.0002,0.40598 1.4002,-5.68373 0.2001,-3.65383 0.4001,-8.3226 0.4001,-10.454 0,-4.46579 0.2,-4.56728 5.3009,-4.56728 5.901,0 5.5009,-2.74037 5.3009,32.07246 l -0.2001,30.55008 -4.7007,0.20299 c -5.0009,0.20299 -5.701,-0.1015 -5.701,-2.74037 v -1.31944 l -2.2004,1.52243 c -4.5007,3.14635 -12.8021,4.2628 -18.5031,2.43588 z m 12.7022,-10.25101 c 4.3007,-1.62396 7.3012,-6.80021 7.3012,-12.28095 0,-10.04802 -8.8015,-15.93473 -17.2029,-11.57044 -8.5014,4.46578 -8.7014,19.38557 -0.3,23.34392 2.7004,1.31944 7.7013,1.52243 10.3017,0.50747 z m 43.2072,10.14952 c -4.8008,-1.52243 -8.5014,-4.87177 -10.9018,-9.74354 l -2.1004,-4.26283 -0.2,-14.91979 c -0.2,-17.66015 -0.5001,-16.94968 5.701,-16.94968 2.2003,0 4.3007,0.20299 4.7007,0.50747 0.5001,0.40598 0.8002,4.1613 1.1002,14.00633 0.4001,14.81829 1.0002,17.66015 4.0007,19.69006 3.9007,2.63891 9.9017,2.33443 13.1022,-0.81196 3.0005,-2.84187 3.3005,-4.56729 3.3005,-18.67511 0,-15.32576 -0.2,-14.91978 5.901,-14.91978 6.5011,0 6.1011,-1.82692 5.901,23.74986 l -0.2,22.22747 h -5.0008 c -5.0009,0 -5.1009,0 -5.2009,-1.62392 l -0.2,-1.62392 -3.5006,1.92841 c -4.4008,2.33438 -11.4019,2.94335 -16.4028,1.31943 z m 198.6333,0 c -0.8001,-0.81196 -0.9001,-3.65383 -0.9001,-21.72 0.1,-11.46895 0.2,-21.41548 0.3,-22.12594 0.3001,-1.11645 0.9002,-1.31944 4.4007,-1.62392 5.2009,-0.40598 6.4011,-0.1015 6.8012,2.0299 l 0.4001,1.62392 3.9006,-2.0299 c 3.4006,-1.82691 4.5008,-2.0299 8.5014,-2.0299 5.601,0 8.9015,1.11644 13.0022,4.36429 l 3.2005,2.53738 1.9004,-1.82692 c 7.4012,-7.30765 21.5036,-7.00316 28.9048,0.60897 4.5008,4.66878 5.1009,7.20616 5.1009,24.86631 v 15.4273 h -11.3019 l -0.3001,-14.51384 c -0.2,-9.84503 -0.5001,-14.91979 -1.0001,-15.83324 -3.0006,-5.48074 -10.8019,-6.80018 -15.5026,-2.53738 -3.7007,3.34934 -4.0007,4.77027 -4.3008,19.58856 l -0.3,13.2959 h -10.7018 l -0.3001,-13.90487 c -0.3,-12.88988 -0.4,-14.10783 -1.6002,-16.54371 -3.0005,-5.88672 -10.7018,-6.59718 -15.6026,-1.52243 -3.1006,3.24785 -3.5006,5.48074 -3.5006,19.38558 0,9.23609 -0.2001,12.28095 -0.7001,12.48394 -0.4001,0.10149 -2.7005,0.40598 -5.0009,0.60897 -3.4006,0.30448 -4.5007,0.20299 -5.2009,-0.60897 z m -473.4794,0 c -0.2,-0.20299 -0.4,-10.04802 -0.4,-21.92299 0,-24.46033 -0.2001,-23.44538 4.8008,-23.44538 3.7006,0 5.3009,0.81196 5.3009,2.84187 0,1.82691 0.1,1.82691 2.8004,0 6.9012,-4.66878 18.8032,-3.24785 24.7042,3.04485 4.0007,4.2628 4.3007,5.98821 4.3007,23.74986 v 15.73179 h -9.5016 l -0.3,-14.20936 c -0.3001,-15.83324 -0.6001,-17.05118 -4.8008,-19.99454 -3.0005,-2.1314 -9.5016,-1.72542 -12.6022,0.60897 -3.9006,3.14635 -4.3007,4.77027 -4.6007,19.89304 l -0.3001,13.60039 -4.5007,0.20299 c -2.5004,0.1015 -4.7008,0 -4.9009,-0.30448 z m 318.6535,0 c -0.8002,-0.81196 -0.5001,-44.35342 0.3,-45.16538 0.4001,-0.40598 2.4004,-0.71046 4.9008,-0.71046 4.5008,0 5.601,0.60897 5.601,2.94335 v 1.42094 l 2.2003,-1.52243 c 3.2006,-2.23289 7.2012,-3.04485 12.5021,-2.63887 7.8013,0.60897 13.0022,4.0598 16.1027,10.85998 1.6003,3.45083 1.6003,3.45083 1.6003,19.18258 v 15.73178 h -10.8018 l -0.3001,-13.90487 c -0.3,-11.16447 -0.5,-14.20932 -1.3002,-15.73175 -3.2005,-6.08971 -10.8018,-7.51064 -15.9026,-3.04485 -3.6006,3.14635 -3.8007,4.1613 -4.1007,19.08108 l -0.3001,13.60039 -5.1008,0.20299 c -2.8005,0.1015 -5.3009,0 -5.501,-0.30448 z m -264.1443,-51.15359 c -5.3009,-2.43588 -4.7008,-10.96148 0.9001,-12.68689 7.7013,-2.33439 11.902,9.54054 4.6008,12.78838 -2.5004,1.01496 -3.1005,1.01496 -5.4009,0 z m 186.4312,-55.92382 c -4.8008,-0.71047 -13.0021,-3.14635 -17.4029,-5.17625 -2.7004,-1.21794 -3.3005,-1.82691 -3.3005,-2.94336 0,-3.34934 1.9003,-13.29586 4.1006,-21.21248 1.3003,-4.77028 2.4005,-9.03307 2.4005,-9.64204 0,-0.71047 -1.3003,-1.62392 -3.9007,-2.94336 -2.2004,-1.01495 -5.2009,-2.84187 -6.8011,-4.05981 -3.5006,-2.63887 -3.6006,-2.33438 -1.6003,5.58224 0.7001,2.84186 1.1002,5.37924 0.9001,5.58223 -0.9001,1.01495 -5.5009,-2.63888 -9.5016,-7.71363 l -2.2003,-2.74037 0.4,3.34934 c 1.2002,10.3525 5.2009,21.41547 10.8019,29.53508 1.7002,2.53738 3.0005,4.97326 2.8004,5.37925 -0.7001,1.9284 -8.9015,0.30448 -14.6024,-2.94336 -6.6011,-3.65383 -12.2021,-9.94653 -16.7028,-18.67511 -2.0004,-3.95831 -2.2004,-4.1613 -2.2004,-2.43588 0,1.82691 1.3002,9.33755 2.1004,12.3824 1.3002,4.46579 -6.3011,-2.13139 -11.502,-10.14951 -10.9018,-16.7467 -13.1022,-35.5233 -6.6011,-56.73577 1.0002,-3.24784 1.7003,-5.98821 1.6003,-6.08971 -0.1,-0.10149 -1.8003,0.30449 -3.7006,1.01495 -3.7006,1.31944 -10.5018,1.42094 -10.9019,0.20299 -0.1,-0.40598 0.6001,-1.01495 1.7003,-1.52242 2.8005,-1.21794 9.7017,-8.22111 12.1021,-12.28091 3.2005,-5.48074 13.6022,-29.12911 13.5022,-30.85453 0,-0.81196 -1.0001,-4.87176 -2.2003,-8.93156 -2.2004,-7.40914 -4.1007,-17.55866 -4.8008,-25.17079 -0.3001,-3.55233 -0.2001,-4.1613 0.6001,-4.46579 0.6001,-0.20299 7.5012,1.82692 17.0028,5.17626 l 15.9027,5.58223 4.6007,-2.43589 c 11.0019,-5.68372 20.7035,-7.81512 35.506,-7.71363 12.4021,0 17.2029,1.01496 27.3046,5.17626 l 4.6007,1.9284 6.9012,-3.75532 c 4.0007,-2.13139 11.2019,-6.59718 11.702,-6.59718 3.3005,0 4.3007,29.02761 1.4002,42.62795 -2.3004,10.55549 -2.3004,9.74353 1.4002,13.80333 4.8008,5.17626 9.8017,7.51064 15.1026,7.00317 2.2003,-0.20299 4.7007,-0.50748 5.6009,-0.71047 1.5002,-0.40598 1.6003,-0.30448 1.6003,1.31944 0,0.91346 -1.0002,3.75532 -2.2004,6.2927 -1.9003,3.85681 -2.1004,4.77027 -1.4002,5.78522 1.1001,1.92841 3.0005,8.72858 4.3007,15.52876 5.0008,26.7947 -2.2004,58.56268 -15.3026,67.59575 -7.7013,5.27774 -16.2027,5.68372 -28.7048,1.31943 -4.0007,-1.42093 -7.4012,-2.53737 -7.5013,-2.53737 -0.1,0 -0.3,0.60897 -0.3,1.31943 0,2.53738 -3.2005,8.11961 -6.7011,11.46895 -4.0007,3.75532 -11.1019,7.61214 -17.1029,9.13456 -4.9008,1.21795 -15.1025,1.72542 -20.2034,1.01496 z m 15.7027,-43.23693 c 16.5027,-5.98821 27.4046,-19.18258 29.1048,-35.01581 0.3001,-3.04485 -0.9001,-3.24784 -2.8004,-0.81196 -2.5004,0.81196 -8.7015,-3.14635 -14.9025,-9.64204 l -5.801,-6.08971 -0.7001,2.63888 c -2.4004,9.64203 -7.4013,21.41546 -8.9015,21.41546 -2.1004,0 -7.2012,-3.34934 -11.802,-7.81512 -2.6004,-2.53737 -4.8008,-4.46578 -4.8008,-4.26279 0,1.11645 3.8006,8.83007 6.5011,13.09286 1.7003,2.74037 3.0005,5.07476 3.1005,5.37924 0,0.81196 -20.4034,0.40598 -23.904,-0.40598 -4.1007,-1.01495 -7.8013,-3.24784 -10.9018,-6.49569 -1.3002,-1.42093 -2.5004,-2.53737 -2.8005,-2.53737 -0.8001,0 1.3002,7.71363 3.2006,11.36745 2.9004,5.68373 10.3017,13.09287 16.3027,16.34072 5.5009,2.94336 8.2014,4.0598 13.8023,5.68373 5.5009,1.52242 7.5013,1.52242 13.3022,-0.60898 z m 8.7014,-22.73491 c -5.4009,-3.04485 -5.7009,-13.39735 -0.5001,-16.74669 2.3004,-1.52242 5.801,-1.31943 7.7013,0.40598 4.2007,3.85682 3.4006,14.00632 -1.2002,16.5437 -2.3004,1.21794 -3.5006,1.21794 -6.001,-0.20299 z"
     id="path2"
     style="fill:#ffffff;fill-opacity:1;stroke-width:1.00753" />
</svg>
