<?xml version="1.0" encoding="UTF-8" standalone="no"?>
<svg
   viewBox="0 0 2048 2048"
   version="1.1"
   id="svg3"
   width="2048"
   height="2048"
   xmlns="http://www.w3.org/2000/svg"
   xmlns:svg="http://www.w3.org/2000/svg">
  <defs
     id="defs3" />
  <path
     fill="#f7deae"
     d="m 579.07137,399.71516 c -3.30055,-0.50747 -8.10136,-2.74036 -8.60144,-4.0598 -0.40007,-0.91346 2.00033,-6.69869 3.30055,-8.01812 0.6001,-0.60897 1.30022,-0.50747 3.50059,0.71047 1.50025,0.81196 3.10052,1.52243 3.6006,1.52243 3.0005,0 6.60111,-4.77028 5.80097,-7.61214 -0.6001,-1.82691 -8.10135,-20.40052 -13.40224,-32.98592 -5.00084,-11.87493 -5.00084,-11.87493 1.50025,-11.87493 2.30038,0 4.50075,0.20299 4.90082,0.50747 0.6001,0.40598 8.60144,18.67511 12.00201,27.3022 l 1.50025,3.9583 1.00017,-2.43588 c 0.50008,-1.31943 3.20054,-8.01811 5.90099,-14.8183 2.70045,-6.80016 5.4009,-12.78839 6.10102,-13.39735 1.50025,-1.42093 8.90149,-1.52243 9.90166,-0.20299 0.50008,0.60897 -0.40007,3.55233 -4.00067,12.4839 -6.30106,15.83325 -15.40258,37.7562 -16.80282,40.49657 -3.10052,6.29269 -9.30155,9.54053 -16.20271,8.52558 z m 53.60898,-15.52875 c -7.60127,-1.72542 -11.90199,-7.00317 -11.90199,-14.8183 0,-3.85682 1.60026,-7.61214 4.10068,-9.84503 3.70062,-3.14635 5.50092,-3.65383 15.90267,-3.9583 10.40174,-0.30449 10.40174,-0.30449 8.90149,-3.55233 -1.8003,-4.16131 -10.20171,-5.27775 -18.00302,-2.43589 -2.30038,0.81196 -4.40073,1.52243 -4.60077,1.52243 -0.70012,0 -3.40057,-6.49569 -3.40057,-8.11961 0,-2.84187 10.70179,-5.78523 19.30324,-5.37924 9.30155,0.50747 15.60261,4.56728 17.80298,11.57044 0.80013,2.33439 0.90015,5.68373 0.80013,18.57361 l -0.20003,15.73175 h -4.80081 c -4.30072,0 -4.8008,-0.1015 -5.30088,-1.31944 l -0.50009,-1.31944 -2.70045,1.42093 c -4.8008,2.53738 -9.80164,3.14635 -15.5026,1.82691 z m 12.90216,-10.35251 c 2.90049,-1.42093 5.10086,-5.07475 4.80081,-7.81512 -0.20004,-1.62393 -0.30005,-1.62393 -4.60078,-1.82692 -9.70162,-0.40598 -13.90232,1.21795 -13.80231,5.37925 0,2.13139 1.40024,4.1613 3.40057,4.97326 2.30039,1.01495 7.60128,0.60897 10.20171,-0.71047 z m -484.38119,10.14952 c -0.90015,-0.10151 -3.00051,-1.11646 -4.70079,-2.2329 -7.70129,-4.77027 -8.80148,-17.05118 -2.00034,-22.43042 3.10052,-2.43589 6.70113,-3.24785 16.40275,-3.75532 8.60144,-0.40598 8.90149,-0.40598 8.50143,-1.72542 -0.70012,-2.43588 -2.10036,-4.1613 -4.10069,-5.07476 -3.10052,-1.31944 -10.90183,-1.11645 -14.70246,0.40598 -4.40074,1.72541 -5.00084,1.62392 -6.10103,-1.11645 -1.90031,-4.77028 -1.8003,-5.48073 0.80014,-6.90167 6.10102,-3.24785 17.40291,-3.95832 23.904,-1.62393 3.50059,1.31944 7.30123,4.66878 9.00151,7.91662 1.30022,2.43589 1.30022,3.24785 1.30022,19.18259 v 16.6452 l -4.30072,0.20299 c -3.50059,0.1015 -4.40074,0 -4.60077,-0.81196 -0.90015,-3.14635 -0.80014,-2.94336 -2.50042,-1.62392 -3.10052,2.53738 -10.50176,3.75532 -16.90283,2.74037 z m 13.50226,-10.14952 c 2.80047,-1.42093 4.40074,-4.0598 4.40074,-7.61213 v -2.2329 l -7.70129,0.20299 c -7.20121,0.20299 -7.80131,0.30449 -9.20155,1.72542 -1.70028,1.62392 -2.10035,5.17625 -0.80013,7.00316 2.10035,2.94336 8.40141,3.34934 13.30223,0.91346 z m 79.71336,9.84503 c -1.00017,-0.71046 -1.00017,-2.43588 -0.90015,-23.0394 l 0.20003,-22.22743 4.10069,-0.20299 c 2.50042,-0.1015 4.40074,0.10149 4.90082,0.50747 0.70012,0.60897 0.80014,4.56728 0.80014,22.53192 0,11.97643 -0.20004,21.92296 -0.40007,22.12595 -1.30022,0.81196 -7.70129,1.01495 -8.60144,0.30448 z m 21.10354,0.30449 c -0.6001,-0.20299 -0.70012,-5.27775 -0.70012,-22.43044 0,-25.1708 -0.40007,-23.44538 5.30089,-23.44538 3.20053,0 4.80083,1.01495 4.80083,3.14635 0,1.11646 0.10002,1.11646 2.20037,-0.30448 3.50059,-2.33439 6.40107,-3.04486 11.70196,-2.74037 5.10086,0.30449 9.60161,2.0299 11.902,4.77027 1.50025,1.72542 1.8003,1.62393 4.70078,-0.91345 6.60111,-5.88673 19.30324,-5.27775 25.70431,1.11645 4.50075,4.56728 5.20087,7.51064 5.50092,24.46033 0.10002,8.01812 0,14.81829 -0.20003,15.22427 -0.50009,0.81196 -8.50143,1.21794 -9.60161,0.50748 -0.50009,-0.30449 -0.70012,-4.56729 -0.70012,-13.80334 0,-12.6869 -0.10002,-13.60035 -1.30022,-16.13773 -4.00067,-8.22111 -14.80248,-7.30765 -18.10303,1.52243 -0.40007,1.21794 -0.70012,6.49568 -0.80013,14.5138 -0.10002,7.00317 -0.30005,12.99138 -0.50009,13.49886 -0.40006,0.60897 -1.8003,0.71046 -4.90082,0.60897 l -4.40074,-0.20299 -0.30005,-13.60035 c -0.30005,-12.88989 -0.40006,-13.80334 -1.8003,-16.64521 -1.90032,-3.95831 -4.40073,-5.37924 -9.00151,-5.07475 -2.50041,0.20299 -3.90065,0.60897 -5.50092,1.9284 -4.00067,3.14635 -4.2007,4.05981 -4.40073,19.38558 -0.10002,9.94652 -0.40007,13.80334 -0.90018,14.00633 -1.30022,0.40598 -7.80131,0.81196 -8.60145,0.50747 z m 94.01578,-0.81196 c -9.80164,-3.34935 -15.5026,-12.38241 -15.10253,-23.74987 0.40006,-8.83008 4.70078,-15.73175 12.30206,-19.48707 3.0005,-1.42093 4.10069,-1.62392 9.90166,-1.62392 6.20104,0 6.80114,0.1015 10.50176,2.0299 6.80114,3.45083 10.80181,9.43905 12.00201,17.96465 1.00016,7.00315 2.20037,6.59718 -17.10287,6.80016 -12.70213,0.10151 -16.40275,0.3045 -16.40275,0.91346 0,0.40598 0.70012,1.82691 1.50026,3.04485 4.00067,6.08971 13.80231,7.00317 21.30356,1.92841 l 1.60027,-1.11645 2.70045,2.74037 c 1.50026,1.52243 2.70046,3.24785 2.70046,3.75532 0,1.42093 -3.20054,4.1613 -7.10119,5.98821 -4.50076,2.1314 -13.50226,2.53738 -18.70314,0.71047 z m 18.70313,-27.40369 c 0,-1.52243 -3.40057,-5.78523 -5.50092,-6.80018 -4.90082,-2.43588 -10.20171,-1.82691 -13.90233,1.52243 -1.8003,1.62392 -3.80064,4.66878 -3.80064,5.68373 0,0.20299 5.20087,0.30448 11.60195,0.30448 9.30156,0 11.60194,-0.20299 11.60194,-0.81196 z m 31.70531,27.70817 c -6.001,-1.92841 -10.10169,-5.88672 -13.10219,-12.5854 -2.10035,-4.56728 -2.30039,-13.39736 -0.50009,-18.47211 3.50059,-9.64204 12.90216,-15.83325 22.50377,-14.81829 3.50059,0.40598 8.20138,2.13139 9.90166,3.85681 0.90015,0.81196 1.00017,0.40598 1.40024,-5.68373 0.20003,-3.65383 0.40006,-8.3226 0.40006,-10.454 0,-4.46578 0.20004,-4.56728 5.30089,-4.56728 5.90099,0 5.50092,-2.74037 5.30089,32.07247 l -0.20003,30.55004 -4.70079,0.20299 c -5.00084,0.20299 -5.70096,-0.1015 -5.70096,-2.74037 v -1.31944 l -2.20037,1.52243 c -4.50075,3.14635 -12.80214,4.26279 -18.50309,2.43588 z m 12.70213,-10.25102 c 4.30072,-1.62392 7.30122,-6.80016 7.30122,-12.28091 0,-10.04802 -8.80147,-15.93474 -17.20288,-11.57045 -8.50142,4.46579 -8.70146,19.38559 -0.30005,23.34389 2.70045,1.31944 7.70129,1.52242 10.30173,0.50747 z m 43.20724,10.14952 c -4.80081,-1.52243 -8.50143,-4.87177 -10.90183,-9.74354 l -2.10035,-4.26279 -0.20003,-14.91979 c -0.20004,-17.66015 -0.50009,-16.94968 5.70095,-16.94968 2.20037,0 4.30072,0.20298 4.70079,0.50748 0.50008,0.40597 0.80013,4.1613 1.10018,14.00633 0.40007,14.81829 1.00017,17.66014 4.00067,19.69004 3.90066,2.63889 9.90166,2.3344 13.10221,-0.81196 3.0005,-2.84186 3.30055,-4.56728 3.30055,-18.67509 0,-15.32578 -0.20003,-14.91979 5.90099,-14.91979 6.50109,0 6.10102,-1.82691 5.90099,23.74985 l -0.20004,22.22744 h -5.00083 c -5.00084,0 -5.10086,0 -5.20087,-1.62392 l -0.20004,-1.62392 -3.50058,1.9284 c -4.40075,2.33439 -11.40192,2.94336 -16.40276,1.31944 z m 198.63328,0 c -0.80013,-0.81197 -0.90015,-3.65383 -0.90015,-21.71996 0.10002,-11.46895 0.20004,-21.41548 0.30005,-22.12594 0.30005,-1.11645 0.90015,-1.31944 4.40074,-1.62393 5.20087,-0.40597 6.40107,-0.10149 6.80114,2.0299 l 0.40007,1.62394 3.90065,-2.02991 c 3.40057,-1.82692 4.50075,-2.0299 8.50142,-2.0299 5.60094,0 8.9015,1.11645 13.00218,4.36429 l 3.20054,2.53738 1.90032,-1.82691 c 7.40124,-7.30765 21.5036,-7.00317 28.90484,0.60897 4.50075,4.66878 5.10085,7.20615 5.10085,24.86631 v 15.42726 h -11.30189 l -0.30005,-14.5138 c -0.20003,-9.84503 -0.50008,-14.91979 -1.00017,-15.83326 -3.0005,-5.48073 -10.80181,-6.80017 -15.50259,-2.53738 -3.70062,3.34934 -4.00067,4.77028 -4.30073,19.58857 l -0.30005,13.29587 h -10.70179 l -0.30005,-13.90483 c -0.30005,-12.88989 -0.40007,-14.10783 -1.60027,-16.54371 -3.0005,-5.88672 -10.70179,-6.59719 -15.60261,-1.52243 -3.10052,3.24785 -3.50059,5.48073 -3.50059,19.38557 0,9.23606 -0.20003,12.28092 -0.70011,12.48391 -0.40007,0.10149 -2.70046,0.40598 -5.00084,0.60897 -3.40057,0.30448 -4.50076,0.20299 -5.20087,-0.60897 z m -473.47937,0 c -0.20003,-0.20298 -0.40006,-10.04801 -0.40006,-21.92296 0,-24.46033 -0.20004,-23.44537 4.8008,-23.44537 3.70062,0 5.30089,0.81196 5.30089,2.84186 0,1.82691 0.10002,1.82691 2.80047,0 6.90116,-4.66878 18.80315,-3.24784 24.70414,3.04485 4.00067,4.2628 4.30072,5.98822 4.30072,23.74987 v 15.73175 h -9.50159 l -0.30005,-14.20932 c -0.30005,-15.83325 -0.6001,-17.05119 -4.80081,-19.99455 -3.0005,-2.1314 -9.50159,-1.72542 -12.60211,0.60897 -3.90065,3.14635 -4.30072,4.77027 -4.60077,19.89305 l -0.30005,13.60035 -4.50075,0.20299 c -2.50042,0.1015 -4.70079,0 -4.90083,-0.30448 z m 318.65344,0 c -0.80014,-0.81197 -0.50009,-44.35337 0.30005,-45.16534 0.40006,-0.40597 2.4004,-0.71046 4.90082,-0.71046 4.50075,0 5.60094,0.60897 5.60094,2.94335 v 1.42093 l 2.20036,-1.52243 c 3.20054,-2.23289 7.20121,-3.04485 12.5021,-2.63887 7.80131,0.60897 13.00218,4.05981 16.1027,10.85998 1.60026,3.45084 1.60026,3.45084 1.60026,19.18258 v 15.73175 h -10.8018 l -0.30006,-13.90483 c -0.30005,-11.16447 -0.50008,-14.20932 -1.30021,-15.73175 -3.20054,-6.08971 -10.80181,-7.51064 -15.90267,-3.04486 -3.6006,3.14635 -3.80063,4.16131 -4.10068,19.08109 l -0.30005,13.60035 -5.10086,0.20299 c -2.80047,0.1015 -5.30089,0 -5.50092,-0.30448 z M 255.51713,332.22089 c -5.30089,-2.43588 -4.70079,-10.96147 0.90015,-12.68689 7.70129,-2.33439 11.90199,9.54053 4.60077,12.78839 -2.50042,1.01495 -3.10052,1.01495 -5.40091,0 z m 186.43126,-55.92383 c -4.80081,-0.71046 -13.00218,-3.14635 -17.40292,-5.17625 -2.70045,-1.21795 -3.30055,-1.82692 -3.30055,-2.94336 0,-3.34934 1.90032,-13.29586 4.10069,-21.21248 1.30021,-4.77027 2.4004,-9.03308 2.4004,-9.64204 0,-0.71046 -1.30022,-1.62393 -3.90065,-2.94337 -2.20037,-1.01495 -5.20088,-2.84186 -6.80114,-4.0598 -3.50059,-2.63887 -3.60061,-2.33439 -1.60027,5.58223 0.70012,2.84186 1.10018,5.37924 0.90015,5.58223 -0.90015,1.01495 -5.50092,-2.63886 -9.50159,-7.71362 l -2.20037,-2.74037 0.40007,3.34934 c 1.2002,10.35251 5.20087,21.41548 10.8018,29.53509 1.70029,2.53738 3.00051,4.97325 2.80047,5.37924 -0.70011,1.9284 -8.90149,0.30449 -14.60244,-2.94336 -6.60111,-3.65382 -12.20205,-9.94652 -16.7028,-18.6751 -2.00034,-3.95831 -2.20037,-4.1613 -2.20037,-2.43589 0,1.82692 1.30022,9.33756 2.10035,12.38241 1.30022,4.46578 -6.30105,-2.1314 -11.50192,-10.14951 -10.90183,-16.7467 -13.1022,-35.5233 -6.60111,-56.73579 1.00017,-3.24784 1.70029,-5.98821 1.60027,-6.08971 -0.10002,-0.10149 -1.8003,0.30449 -3.70062,1.01495 -3.70062,1.31944 -10.50176,1.42093 -10.90183,0.20299 -0.10001,-0.40599 0.6001,-1.01495 1.70029,-1.52242 2.80047,-1.21795 9.70162,-8.22111 12.10202,-12.28092 3.20054,-5.48073 13.60228,-29.1291 13.50227,-30.85452 0,-0.81196 -1.00017,-4.87177 -2.20037,-8.93157 -2.20037,-7.40915 -4.10069,-17.55865 -4.80081,-25.17079 -0.30005,-3.55233 -0.20003,-4.1613 0.6001,-4.4658 0.6001,-0.20299 7.50126,1.82693 17.00285,5.17627 l 15.90267,5.58223 4.60077,-2.43588 c 11.00184,-5.68373 20.70347,-7.81514 35.50595,-7.71364 12.40207,0 17.20288,1.01496 27.30457,5.17626 l 4.60077,1.9284 6.90116,-3.75532 C 492.85693,104.4658 500.05813,100 500.55822,100 c 3.30055,0 4.30072,29.0276 1.40023,42.62796 -2.30038,10.55549 -2.30038,9.74352 1.40024,13.80333 4.8008,5.17625 9.80164,7.51065 15.10253,7.00318 2.20036,-0.20299 4.70078,-0.50748 5.60093,-0.71047 1.50026,-0.40599 1.60027,-0.30449 1.60027,1.31944 0,0.91345 -1.00017,3.75532 -2.20037,6.2927 -1.90032,3.85681 -2.10035,4.77027 -1.40023,5.78522 1.10018,1.9284 3.0005,8.72857 4.30072,15.52876 5.00084,26.7947 -2.20037,58.5627 -15.30256,67.59575 -7.70129,5.27775 -16.20272,5.68374 -28.70482,1.31944 -4.00067,-1.42092 -7.40124,-2.53738 -7.50126,-2.53738 -0.10002,0 -0.30005,0.60898 -0.30005,1.31945 0,2.53738 -3.20054,8.11961 -6.70112,11.46895 -4.00067,3.75532 -11.10186,7.61214 -17.10287,9.13456 -4.90082,1.21794 -15.10253,1.72542 -20.20338,1.01495 z m 15.70263,-43.23692 c 16.50276,-5.98823 27.40459,-19.1826 29.10487,-35.01583 0.30005,-3.04485 -0.90015,-3.24784 -2.80046,-0.81196 -2.50042,0.81196 -8.70146,-3.14636 -14.9025,-9.64204 l -5.80097,-6.08971 -0.70012,2.63887 c -2.4004,9.64203 -7.40124,21.41548 -8.90149,21.41548 -2.10035,0 -7.20121,-3.34935 -11.80198,-7.81512 -2.60043,-2.53738 -4.8008,-4.4658 -4.8008,-4.2628 0,1.11644 3.80063,8.83008 6.50109,13.09287 1.70028,2.74036 3.0005,5.07476 3.10052,5.37925 0,0.81196 -20.40342,0.40598 -23.90401,-0.40599 -4.10069,-1.01495 -7.80131,-3.24784 -10.90183,-6.49568 -1.30021,-1.42094 -2.50041,-2.53738 -2.80046,-2.53738 -0.80014,0 1.30021,7.71363 3.20053,11.36744 2.90049,5.68374 10.30173,13.09289 16.30273,16.34073 5.50092,2.94335 8.20138,4.05981 13.80231,5.68372 5.50093,1.52243 7.50126,1.52243 13.30223,-0.60896 z m 8.70146,-22.73493 c -5.40091,-3.04485 -5.70096,-13.39735 -0.50009,-16.7467 2.30039,-1.52242 5.80097,-1.31943 7.70129,0.40599 4.20071,3.85682 3.40057,14.00633 -1.2002,16.54371 -2.30038,1.21795 -3.50058,1.21795 -6.001,-0.203 z"
     id="path1"
     style="fill:#000000;fill-opacity:1;stroke-width:1.00753;stroke-dasharray:none" />
</svg>
